# xmcd
#
# Track frame offsets:
#  183
#  11450
#  24543
#  36243
#  49625
#  62678
#  77123
#  89518
#  100555
#  114113
#  129285
#  142963
#  155395
#  168460
#  180453
#  194400
#  206495
#  219133
#
# Disc length: 3073 seconds
#
# Revision: 1
# Processed by: cddbd v1.5.2PL0 Copyright (c) Steve Scherf et al.
# Submitted via: Collectorz.com_Music_Collector 6.10
#
DISCID=de0bff12
DTITLE=Moe Brandy - The Country Store Collection
DYEAR=1988
DGENRE=Country
TTITLE0=The Champ
TTITLE1=Where's The Dress
TTITLE2=Jambalaya (On The Bayou)
TTITLE3=Yesterday Once More
TTITLE4=Are We Making Love Or Just Making Friends
TTITLE5=Country Side
TTITLE6=Cowboys Ain't Supposed To Cry
TTITLE7=You're Gonna Lose Her Like That
TTITLE8=Still On A Roll
TTITLE9=It Look A Lot Of Drinking (To Get That Woman Over Me)
TTITLE10=Woman Your Love
TTITLE11=She's Not Really Chatin' (She's Just Gettin` Even)
TTITLE12=I Still Love You In The Same OL` Way
TTITLE13=Don't Sing Me Songs About Texas
TTITLE14=The Wild Side Of Life
TTITLE15=Your Cheatin` Heart
TTITLE16=My Woman Loves The Devil Out Of Me
TTITLE17=Hank and Lefty Raised My Country Soul
EXTD=
EXTT0=
EXTT1=
EXTT2=
EXTT3=
EXTT4=
EXTT5=
EXTT6=
EXTT7=
EXTT8=
EXTT9=
EXTT10=
EXTT11=
EXTT12=
EXTT13=
EXTT14=
EXTT15=
EXTT16=
EXTT17=
PLAYORDER=
